Coordinates
version=1
nRows=24
nColumns=24
inDegrees=yes

Units are S.I. units (second, meters, Newtons, ...)
Angles are in degrees.

endheader
time	pelvis_tilt	pelvis_list	pelvis_rotation	pelvis_tx	pelvis_ty	pelvis_tz	hip_flexion_r	hip_adduction_r	hip_rotation_r	knee_angle_r	ankle_angle_r	subtalar_angle_r	mtp_angle_r	hip_flexion_l	hip_adduction_l	hip_rotation_l	knee_angle_l	ankle_angle_l	subtalar_angle_l	mtp_angle_l	lumbar_extension	lumbar_bending	lumbar_rotation
      5.29500000	    -16.09870781	     -7.96664530	      4.07269404	      2.93467428	     -0.02572343	     -0.43723555	     34.00105660	      7.45619315	     -5.35048640	    -17.95384235	     -8.71195799	     -0.36116655	      8.52950310	     11.66326677	    -13.88351442	    -12.21240793	    -46.05387712	    -37.22225090	     25.34123420	     29.69083400	     14.68213797	      8.16346107	     -6.21751557
      5.30000000	    -16.07545471	     -8.17703236	      4.14308512	      2.94007267	     -0.02528721	     -0.43701439	     33.60733625	      7.68608532	     -5.47048208	    -17.85240980	     -8.39759058	     -0.25322587	      8.61589015	     12.55264227	    -14.21795772	    -11.79238608	    -47.54737610	    -37.35036222	     24.24301838	     29.47918404	     14.64927438	      8.35819697	     -6.23508300
      5.30500000	    -15.98916511	     -8.39931185	      4.15703080	      2.94560236	     -0.02475940	     -0.43671132	     33.11485836	      7.97506490	     -5.55775248	    -17.70424936	     -8.10715487	     -0.17446423	      8.70880115	     13.33658766	    -14.58797741	    -11.48250817	    -48.99071179	    -37.25253525	     23.09330503	     29.27684381	     14.56524641	      8.58842256	     -6.17240700
      5.31000000	    -15.90799673	     -8.56752835	      4.21884736	      2.95107645	     -0.02416684	     -0.43649888	     32.61751099	      8.17982893	     -5.66459893	    -17.54141790	     -7.81586989	     -0.06155580	      8.82838779	     14.14668271	    -14.84846680	    -11.09863130	    -50.39555283	    -36.93274068	     21.82927405	     29.03065049	     14.48893492	      8.74461466	     -6.14201880
      5.31500000	    -15.91099045	     -8.64682810	      4.30843770	      2.95644801	     -0.02360979	     -0.43639380	     32.22215976	      8.24277941	     -5.87723835	    -17.40574783	     -7.49700908	      0.27700367	      9.15403829	     15.07090160	    -14.95062135	    -10.64206555	    -51.79142350	    -36.31499500	     20.61136477	     28.52028538	     14.49707783	      8.79538901	     -6.12037961
      5.32000000	    -15.81598623	     -8.73877572	      4.34339856	      2.96195141	     -0.02290765	     -0.43616438	     31.68110696	      8.38569466	     -5.98199310	    -17.20315949	     -7.24153447	      0.45171717	      9.45900311	     15.83567703	    -15.10300962	    -10.31663079	    -53.09454682	    -35.55902594	     19.40557023	     28.10559138	     14.41328127	      8.87901561	     -6.01343865
      5.32500000	    -15.69402861	     -8.79044085	      4.36678048	      2.96740084	     -0.02211770	     -0.43591132	     31.10064592	      8.50470288	     -6.02582815	    -16.98615159	     -7.00922002	      0.61362150	      9.69660294	     16.55484513	    -15.20620652	    -10.03004633	    -54.32113993	    -34.70728282	     18.20906952	     27.75215326	     14.28897848	      8.92254753	     -5.90157913
      5.33000000	    -15.58165694	     -8.81510007	      4.36943686	      2.97293836	     -0.02130653	     -0.43564273	     30.50968206	      8.60537499	     -6.07884478	    -16.74777670	     -6.76714122	      0.81334010	      9.97753621	     17.25471324	    -15.27752730	     -9.78601544	    -55.47972107	    -33.70899865	     17.13214940	     27.28633537	     14.19227552	      8.94254686	     -5.72331208
      5.33500000	    -15.43634455	     -8.84489215	      4.34679136	      2.97845698	     -0.02042969	     -0.43528242	     29.86768561	      8.74818897	     -6.02508568	    -16.48105110	     -6.56257788	      0.89449206	     10.07256897	     17.89557248	    -15.37744746	     -9.61075459	    -56.52952812	    -32.80352764	     16.04796929	     27.15267097	     14.05488399	      8.97309115	     -5.52124625
      5.34000000	    -15.31516525	     -8.76117307	      4.33384263	      2.98391524	     -0.01952024	     -0.43501527	     29.24889225	      8.75272793	     -5.98652155	    -16.22886296	     -6.33035184	      1.11025225	     10.31917955	     18.54441758	    -15.31159892	     -9.42406972	    -57.54834799	    -31.63809117	     15.19405278	     26.43816920	     13.93512430	      8.88129023	     -5.33016515
      5.34500000	    -15.17406571	     -8.69816293	      4.30656670	      2.98939346	     -0.01857485	     -0.43464380	     28.59071092	      8.81193846	     -5.87528711	    -15.94011189	     -6.14855968	      1.13372853	     10.40449690	     19.14774276	    -15.29119422	     -9.28883747	    -58.44210885	    -30.66653383	     14.31723679	     26.16747159	     13.79858314	      8.80706097	     -5.09133985
      5.35000000	    -15.03756532	     -8.61051487	      4.24233553	      2.99493243	     -0.01763338	     -0.43425815	     27.91511828	      8.86111621	     -5.69267517	    -15.62853969	     -5.94415340	      1.21423131	     10.49945900	     19.71950973	    -15.25432697	     -9.20476637	    -59.27631321	    -29.61068669	     13.68377051	     25.69294511	     13.67718052	      8.71815735	     -4.83922951
      5.35500000	    -14.89874878	     -8.50754918	      4.17127428	      3.00041785	     -0.01667943	     -0.43383178	     27.23556090	      8.90591056	     -5.48567737	    -15.31096037	     -5.77181613	      1.20682017	     10.51632410	     20.27212326	    -15.20363823	     -9.14249860	    -60.02154096	    -28.64295713	     13.12241873	     25.38533273	     13.54676287	      8.61098683	     -4.56307577
      5.36000000	    -14.77456689	     -8.41146085	      4.09520735	      3.00591214	     -0.01575199	     -0.43339260	     26.56254094	      8.95841326	     -5.28064376	    -14.97600119	     -5.60561071	      1.18332960	     10.50117404	     20.82596911	    -15.16336201	     -9.10024208	    -60.67514242	    -27.81962655	     12.58375199	     25.33441890	     13.44105918	      8.50935227	     -4.27448243
      5.36500000	    -14.62773492	     -8.24841093	      4.00451107	      3.01137860	     -0.01476803	     -0.43293939	     25.84832661	      8.95903873	     -4.95618618	    -14.62525812	     -5.44363718	      1.08343452	     10.43790679	     21.31827768	    -15.04410406	     -9.08954158	    -61.25132749	    -26.98475535	     12.19686837	     25.14394052	     13.30139146	      8.34079771	     -3.98041505
      5.37000000	    -14.46937106	     -8.08969975	      3.89488912	      3.01677881	     -0.01380079	     -0.43242987	     25.12810350	      8.97381755	     -4.62470805	    -14.28116490	     -5.28908139	      0.96363679	     10.29920566	     21.78774094	    -14.93790816	     -9.07719774	    -61.77213907	    -26.14588330	     12.07013233	     25.00472819	     13.13771594	      8.17987952	     -3.64452281
      5.37500000	    -14.34788562	     -7.89848306	      3.79200718	      3.02220832	     -0.01284297	     -0.43197580	     24.43018471	      8.93884580	     -4.29285138	    -13.91077482	     -5.15219774	      0.86382355	     10.18727904	     22.27165460	    -14.77494680	     -9.07710927	    -62.18838533	    -25.44978048	     11.89102824	     25.08393038	     13.02856381	      7.98153000	     -3.34259524
      5.38000000	    -14.21556355	     -7.70145687	      3.67239546	      3.02762092	     -0.01189747	     -0.43146846	     23.71774535	      8.90562778	     -3.95103039	    -13.53511441	     -5.01679277	      0.74510757	     10.06091625	     22.72456847	    -14.61363829	     -9.09496228	    -62.53660768	    -24.78444111	     11.85038618	     25.24367123	     12.90544213	      7.77831933	     -3.01395001
      5.38500000	    -14.06975126	     -7.51040602	      3.54316562	      3.03302513	     -0.01095972	     -0.43095961	     22.98133520	      8.87993057	     -3.58887483	    -13.14043977	     -4.88854080	      0.60951684	      9.89242376	     23.14890856	    -14.46266934	     -9.13775381	    -62.82302377	    -24.15495651	     11.85190311	     25.45381675	     12.77127836	      7.58476330	     -2.69130892
      5.39000000	    -13.99071690	     -7.27200091	      3.44001447	      3.03839491	     -0.01010179	     -0.43051045	     22.32513897	      8.77158261	     -3.30163990	    -12.76150028	     -4.72988730	      0.56102180	      9.82987395	     23.64174954	    -14.22421979	     -9.14767521	    -63.04040847	    -23.58280100	     11.91752584	     25.72948470	     12.71373808	      7.32796272	     -2.40742957
      5.39500000	    -13.87252447	     -7.03140895	      3.28661992	      3.04375292	     -0.00921590	     -0.42997583	     21.61573730	      8.68530801	     -2.94651327	    -12.36078671	     -4.61040572	      0.46576288	      9.74393517	     24.05326184	    -14.01233638	     -9.22076982	    -63.18425013	    -23.00707502	     12.08617240	     26.05623247	     12.60621971	      7.08398044	     -2.06101495
      5.40000000	    -13.69714243	     -6.81748893	      3.11328778	      3.04905122	     -0.00829249	     -0.42942620	     20.83640266	      8.63736723	     -2.54733671	    -11.93079007	     -4.54774275	      0.29866838	      9.59127147	     24.39095265	    -13.84441997	     -9.32618352	    -63.27207466	    -22.44693803	     12.25818706	     26.42792203	     12.42660610	      6.87828128	     -1.67796924
      5.40500000	    -13.58327797	     -6.56992585	      2.95055347	      3.05436498	     -0.00746024	     -0.42890885	     20.12545502	      8.52933217	     -2.20361284	    -11.51076271	     -4.44343805	      0.22305518	      9.48950367	     24.78317996	    -13.62114441	     -9.42593360	    -63.29989070	    -21.90011113	     12.48337269	     26.80136995	     12.32670624	      6.62823178	     -1.33898045
      5.41000000	    -13.46554089	     -6.31937851	      2.77680577	      3.05968578	     -0.00664866	     -0.42837755	     19.40305058	      8.41633272	     -1.85827975	    -11.07513880	     -4.35446845	      0.13509538	      9.39345325	     25.15182607	    -13.40000297	     -9.55160291	    -63.26888912	    -21.35232126	     12.72171164	     27.17251257	     12.22661544	      6.37441455	     -1.00617512
